<svg fill="none" height="30" viewBox="0 0 20 30" width="20" xmlns="http://www.w3.org/2000/svg"><g fill="#353638"><path d="m12.6 3.59998h-6c-.15913 0-.31174.06321-.42426.17573-.11253.11252-.17574.26514-.17574.42427s.06321.31174.17574.42426c.11252.11252.26513.17574.42426.17574h6c.1591 0 .3117-.06322.4243-.17574.1125-.11252.1757-.26513.1757-.42426s-.0632-.31175-.1757-.42427c-.1126-.11252-.2652-.17573-.4243-.17573z"/><path d="m16.2 0h-13.2c-.79537.00092102-1.55789.317287-2.120303.879697-.56241.562413-.87877598 1.324933-.879697 2.120303v24c.00092102.7954.317287 1.5579.879697 2.1203.562413.5624 1.324933.8788 2.120303.8797h13.2c.7954-.0009 1.5579-.3173 2.1203-.8797s.8788-1.3249.8797-2.1203v-24c-.0009-.79537-.3173-1.55789-.8797-2.120303-.5624-.56241-1.3249-.87877598-2.1203-.879697zm1.8 27c-.0005.4772-.1903.9348-.5278 1.2722-.3374.3375-.795.5273-1.2722.5278h-13.2c-.47723-.0005-.93478-.1903-1.27223-.5278-.33746-.3374-.52726-.795-.52777-1.2722v-1.8h16.8zm-16.8-3v-21c.00051-.47723.19031-.93478.52777-1.27223.33745-.33746.795-.52726 1.27223-.52777h13.2c.4772.00051.9348.19031 1.2722.52777.3375.33745.5273.795.5278 1.27223v21z"/><path d="m7.8002 27.6h3.6c.1591 0 .3117-.0632.4243-.1757.1125-.1125.1757-.2651.1757-.4243 0-.1591-.0632-.3117-.1757-.4242-.1126-.1126-.2652-.1758-.4243-.1758h-3.6c-.15913 0-.31175.0632-.42427.1758-.11252.1125-.17573.2651-.17573.4242 0 .1592.06321.3118.17573.4243s.26514.1757.42427.1757z"/></g></svg>