<svg fill="none" height="30" viewBox="0 0 25 30" width="25" xmlns="http://www.w3.org/2000/svg"><path d="m15.8413 15.5383c1.6651-.8082 3.0069-2.1572 3.8061-3.8267.7992-1.6694 1.0086-3.56056.5939-5.36439-.4146-1.80383-1.4288-3.41371-2.8768-4.5666-1.4479-1.152885-3.2441-1.78061-5.095-1.78061s-3.64701.627725-5.09498 1.78061c-1.44797 1.15289-2.46213 2.76277-2.87677 4.5666-.41465 1.80383-.20527 3.69499.59393 5.36439.79919 1.6695 2.14096 3.0185 3.80605 3.8267-2.51442.7683-4.71615 2.3228-6.2817 4.435-1.565546 2.1123-2.41236262 4.671-2.41603 7.3001v2.045c0 .1807.0718156.3541.199648.482.127832.1278.30121.1996.481992.1996.180783 0 .35416-.0718.48199-.1996.12784-.1279.19965-.3013.19965-.482v-2.045c0-2.8925 1.14905-5.6665 3.19437-7.7118 2.04531-2.0454 4.81936-3.1944 7.71185-3.1944 2.8925 0 5.6666 1.149 7.7119 3.1944 2.0453 2.0453 3.1944 4.8193 3.1944 7.7118v2.045c0 .1807.0718.3541.1996.482.1279.1278.3012.1996.482.1996s.3542-.0718.482-.1996c.1278-.1279.1997-.3013.1997-.482v-2.045c-.0037-2.6291-.8505-5.1878-2.4161-7.3001-1.5655-2.1122-3.7673-3.6667-6.2817-4.435zm-10.38818-7.35079c0-1.34816.39978-2.66604 1.14877-3.78699.749-1.12095 1.81358-1.99463 3.05911-2.51055 1.2455-.51591 2.6161-.6509 3.9383-.38789 1.3223.26301 2.5369.91221 3.4902 1.8655.9532.9533 1.6024 2.16786 1.8655 3.49012.263 1.32225.128 2.6928-.3879 3.9383-.516 1.2456-1.3896 2.3101-2.5106 3.0591-1.1209.749-2.4388 1.1488-3.787 1.1488-1.8071-.0022-3.53965-.721-4.81751-1.9989-1.27785-1.2778-1.9967-3.01033-1.99887-4.81749z" fill="#000"/></svg>