<svg fill="none" height="241" viewBox="0 0 260 241" width="260" xmlns="http://www.w3.org/2000/svg"><rect fill="#f4f5f5" height="169.14" rx="8" width="193.171" x="33.6582"/><path d="m33.6582 8c0-4.41828 3.5817-8 8-8h177.1708c4.418 0 8 3.58172 8 8v5.1988h-193.1708z" fill="#cacbcc"/><g fill="#f4f5f5"><path clip-rule="evenodd" d="m40 8.79942c1.0777 0 1.9513-.87545 1.9513-1.95537 0-1.07993-.8736-1.95538-1.9513-1.95538-1.0776 0-1.9512.87545-1.9512 1.95538 0 1.07992.8736 1.95537 1.9512 1.95537z" fill-rule="evenodd"/><path clip-rule="evenodd" d="m45.8536 8.79942c1.0776 0 1.9512-.87545 1.9512-1.95537 0-1.07993-.8736-1.95538-1.9512-1.95538-1.0777 0-1.9513.87545-1.9513 1.95538 0 1.07992.8736 1.95537 1.9513 1.95537z" fill-rule="evenodd"/><path clip-rule="evenodd" d="m51.7071 8.79942c1.0776 0 1.9512-.87545 1.9512-1.95537 0-1.07993-.8736-1.95538-1.9512-1.95538-1.0777 0-1.9512.87545-1.9512 1.95538 0 1.07992.8735 1.95537 1.9512 1.95537z" fill-rule="evenodd"/></g><rect fill="#fff" height="94.8357" rx="8" width="34.1463" x="184.877" y="64.5273"/><rect fill="#dde3e9" height="12.7099" rx="4" width="16.5854" x="193.658" y="73.3262"/><rect fill="#cacbcc" height="12.2211" rx="4" width="16.5854" x="193.658" y="89.9473"/><rect fill="#dde3e9" height="12.2211" rx="4" width="16.5854" x="193.658" y="106.078"/><rect fill="#dde3e9" height="12.2211" rx="4" width="16.5854" x="193.658" y="138.342"/><rect fill="#c5cfd6" height="12.2211" rx="4" width="16.5854" x="193.658" y="122.211"/><rect fill="#fff" height="39.5964" rx="8" width="34.1463" x="184.877" y="21.0195"/><path clip-rule="evenodd" d="m201.951 43.9946c4.311 0 7.805-3.5018 7.805-7.8215s-3.494-7.8215-7.805-7.8215c-4.31 0-7.805 3.5018-7.805 7.8215s3.495 7.8215 7.805 7.8215z" fill="#eaeaeb" fill-rule="evenodd"/><rect fill="#eaeaeb" height="2.93306" rx="1.46653" width="24.3902" x="189.756" y="45.9492"/><rect fill="#eaeaeb" height="2.93306" rx="1.46653" width="16.5854" x="193.658" y="50.8379"/><rect fill="#fff" height="22.9757" rx="4" width="139.512" x="41.4629" y="21.0195"/><rect fill="#eaeaeb" height="3.44635" rx="1.72317" width="111.22" x="45.8535" y="27.9121"/><rect fill="#eaeaeb" height="3.44635" rx="1.72318" width="74.6542" x="45.8535" y="33.6562"/><path d="m166.738 32.774c-.079-.0396-.254-.0928-.463-.1066-.208-.0139-.476 0-.476 0v.9057s.279.006.467-.0078c.187-.0138.38-.0612.476-.1145.097-.0533.213-.1362.213-.3434s-.138-.294-.217-.3334zm-.589-.527c.154-.0059.317-.0414.435-.1066.119-.0651.186-.1676.182-.3216-.004-.1539-.107-.2842-.28-.3375s-.289-.0573-.421-.0592-.266.0099-.266.0099v.815s.197.0059.35 0z" fill="#ffcf75"/><path d="m166.067 29.0859c-1.886 0-3.415 1.5321-3.415 3.4219 0 1.8899 1.529 3.422 3.415 3.422s3.415-1.5321 3.415-3.422c0-1.8898-1.529-3.4219-3.415-3.4219zm1.39 4.7303c-.254.1776-.526.2093-.646.225-.059.0078-.16.016-.269.0224v.6861h-.422v-.675h-.321v.675h-.421v-.675h-.829l.086-.5072h.252c.085 0 .121-.0079.156-.0414.035-.0336.043-.0849.043-.1264v-1.7474c0-.1095-.009-.1391-.059-.1953-.05-.0564-.168-.0637-.235-.0637h-.243v-.4385h.829v-.6769h.421v.6769h.321v-.6769h.422v.685c.314.0195.548.0795.752.2306.264.1954.25.5348.244.6157-.006.081-.041.2369-.112.3375s-.244.2013-.244.2013.204.0434.348.1519c.144.1086.25.3.244.5802-.006.2803-.063.5585-.317.7361z" fill="#ffcf75"/><rect fill="#fff" height="19.0649" rx="4" width="139.512" x="41.4629" y="47.9062"/><rect fill="#eaeaeb" height="2.85973" rx="1.42987" width="111.22" x="45.8535" y="53.625"/><rect fill="#eaeaeb" height="2.85973" rx="1.42987" width="74.6542" x="45.8535" y="58.3906"/><path clip-rule="evenodd" d="m166.065 60.8614c1.886 0 3.415-1.5321 3.415-3.4219 0-1.8899-1.529-3.4219-3.415-3.4219s-3.415 1.532-3.415 3.4219c0 1.8898 1.529 3.4219 3.415 3.4219z" fill="#eaeaeb" fill-rule="evenodd"/><path clip-rule="evenodd" d="m166.065 58.9057c.808 0 1.463-.6566 1.463-1.4665 0-.81-.655-1.4665-1.463-1.4665s-1.463.6565-1.463 1.4665c0 .8099.655 1.4665 1.463 1.4665z" fill="#f4f5f5" fill-rule="evenodd"/><rect fill="#fff" height="19.0649" rx="4" width="139.512" x="41.4629" y="70.8809"/><rect fill="#eaeaeb" height="2.85973" rx="1.42987" width="111.22" x="45.8535" y="76.5996"/><rect fill="#eaeaeb" height="2.85974" rx="1.42987" width="74.6542" x="45.8535" y="81.3652"/><path clip-rule="evenodd" d="m166.065 83.836c1.886 0 3.415-1.532 3.415-3.4219s-1.529-3.4219-3.415-3.4219-3.415 1.532-3.415 3.4219 1.529 3.4219 3.415 3.4219z" fill="#eaeaeb" fill-rule="evenodd"/><path clip-rule="evenodd" d="m166.065 81.8803c.808 0 1.463-.6566 1.463-1.4665s-.655-1.4665-1.463-1.4665-1.463.6566-1.463 1.4665.655 1.4665 1.463 1.4665z" fill="#cacbcc" fill-rule="evenodd"/><rect fill="#fff" height="19.0649" rx="4" width="139.512" x="41.4629" y="139.809"/><rect fill="#eaeaeb" height="2.85974" rx="1.42987" width="111.22" x="45.8535" y="145.527"/><rect fill="#eaeaeb" height="2.85973" rx="1.42986" width="74.6542" x="45.8535" y="150.293"/><path clip-rule="evenodd" d="m166.065 152.764c1.886 0 3.415-1.532 3.415-3.422s-1.529-3.422-3.415-3.422-3.415 1.532-3.415 3.422 1.529 3.422 3.415 3.422z" fill="#eaeaeb" fill-rule="evenodd"/><path clip-rule="evenodd" d="m166.065 150.808c.808 0 1.463-.657 1.463-1.466 0-.81-.655-1.467-1.463-1.467s-1.463.657-1.463 1.467c0 .809.655 1.466 1.463 1.466z" fill="#f4f5f5" fill-rule="evenodd"/><rect fill="#fff" height="19.0649" rx="4" width="139.512" x="41.4629" y="116.832"/><rect fill="#eaeaeb" height="2.85976" rx="1.42988" width="111.22" x="45.8535" y="122.551"/><rect fill="#eaeaeb" height="2.85975" rx="1.42987" width="74.6542" x="45.8535" y="127.316"/><path clip-rule="evenodd" d="m166.065 129.787c1.886 0 3.415-1.532 3.415-3.422s-1.529-3.422-3.415-3.422-3.415 1.532-3.415 3.422 1.529 3.422 3.415 3.422z" fill="#eaeaeb" fill-rule="evenodd"/><path clip-rule="evenodd" d="m166.065 127.831c.808 0 1.463-.656 1.463-1.466s-.655-1.467-1.463-1.467-1.463.657-1.463 1.467.655 1.466 1.463 1.466z" fill="#f4f5f5" fill-rule="evenodd"/><rect fill="#fff" height="19.0649" rx="4" width="139.512" x="41.4629" y="93.8574"/><rect fill="#eaeaeb" height="2.85973" rx="1.42987" width="111.22" x="45.8535" y="99.5762"/><rect fill="#eaeaeb" height="2.85973" rx="1.42987" width="74.6542" x="45.8535" y="104.342"/><g clip-rule="evenodd" fill-rule="evenodd"><path d="m166.065 106.813c1.886 0 3.415-1.532 3.415-3.422s-1.529-3.4222-3.415-3.4222-3.415 1.5322-3.415 3.4222 1.529 3.422 3.415 3.422z" fill="#eaeaeb"/><path d="m166.065 104.857c.808 0 1.463-.657 1.463-1.467s-.655-1.466-1.463-1.466-1.463.656-1.463 1.466.655 1.467 1.463 1.467z" fill="#f4f5f5"/><path d="m59.5836 89.1199c3.0191 1.2845 5.8681 1.7093 7.1058 1.1978 3.1035-1.2827 1.7491-13.093-1.3929-17.3816-3.1419-4.2887-16.233-4.5071-15.5894 4.7762.2234 3.222 1.9635 5.8803 4.2704 7.9246l-1.2323 17.0421 10.3181-1.453z" fill="#b28b67"/><path d="m53.4736 87.8168c-2.1023-5.5739-6.3419-8.9782-6.1393-11.6304.2027-2.6521 2.5548-3.6229 2.5548-3.6229s.5466-5.2785 7.5317-5.4856 11.5835 2.0556 10.6513 8.5909c-1.6666.2347-3.7629-.0841-6.4002 1.3394-1.2552.6776-1.4669 3.3123-1.4669 3.3123l-1.2572.1771s-2.2554-2.7737-3.9217-1.7197c-1.6663 1.0541-.2613 4.0173-.2613 4.0173l.0463 4.8333z" fill="#2c3134"/><path d="m55.5703 136.84 15.74 55.186 11.484 40.675h8.376l-12.2034-95.861z" fill="#2c3134"/><path d="m51.3605 136.84c-.364 28.443-1.6055 43.957-1.9877 46.542-.3823 2.584-6.1621 19.024-17.3396 49.319h8.677c14.2297-29.063 22.1731-45.503 23.8302-49.319 1.6571-3.817 6.771-19.331 14.4734-46.542z" fill="#4c5459"/><path d="m31.2578 240.509.4342-9.109h9.117c6.4846 4.555 16.9317 7.374 16.9317 7.374v1.735h-16.4975l-5.6439-.867v.867z" fill="#2c3134"/><path d="m81.6191 240.509.4342-9.109h9.1171c6.4845 4.555 16.9316 7.374 16.9316 7.374v1.735h-16.4975l-5.6439-.867v.867z" fill="#2c3134"/><path d="m86.9593 98.5998-13.7773 10.2672 6.3394 5.133 9.4519-11.446c5.4915-2.377 7.9423-3.8956 7.3525-4.5552-.4973-.5562-1.1575-.4415-1.7656-.3358-.4737.0823-.9158.1591-1.2247-.091-.7054-.5712.1421-3.035 1.0463-5.3389.9043-2.3038-.3567-1.9368-1.0495-1.5262-2.18 1.9682-4.3044 4.5992-6.373 7.8929zm16.6107 9.3442-6.0504 4.521 1.295 6.52s3.8164-3.659 7.3254-5.191c4.475-1.954 6.221-3.21 8.09-6.427 1-1.722 1.597-4.983.295-5.835-.499-.327-2.026.826-3.585 2.003-1.188.896-2.394 1.807-3.176 2.086-1.053.376-1.123-1.047-1.179-2.183-.04-.816-.073-1.485-.457-1.236-1.914.303-2.558 5.742-2.558 5.742z" fill="#997659"/><path d="m65.6607 108.071c5.2191-.791 12.0344-2.875 18.8099-8.6394l3.8333 6.0964c-4.4165 5.809-11.0435 11.004-17.3753 11.715-4.9898.561-8.3724-5.088-5.2679-9.172z" fill="#ffde8c"/><path d="m101.39 108.693s-18.2906 9.555-27.2356 8.81c-.7587-1.668-1.5392-3.337-2.3185-5.004-3.337-7.137-6.6527-14.2284-8.1461-20.999l-1.1868.1671-10.3666 1.46-.3755.0529c-1.3081.1843-7.8106 18.464-6.2675 29.528.5299 3.799-.3426 7.265-1.2612 10.913-1.5242 6.053-3.1753 12.61 1.2421 22.033 2.6311-.913 7.2804-.961 12.3402-1.014 9.4696-.098 20.377-.211 22.1827-6.038 1.3477-4.348 1.2932-8.892.3839-13.547 7.8879-1.287 17.1257-5.246 27.5099-12.672-.233-4.329-6.501-13.69-6.501-13.69z" fill="#ffe9ad"/><path d="m187.031 89.0039c-2.585 2.0238-5.227 3.1731-6.555 3-3.329-.434-5.071-12.1932-3.143-17.1506 1.927-4.9575 14.515-8.5638 16.291.5701.617 3.1701-.378 6.1892-2.078 8.7621l5.592 16.1415-10.342 1.273z" fill="#b28b67"/><path d="m176.613 77.0614c.028-.6153.197-1.3155.329-1.9106.17-.7672.483-1.4785.84-2.1566.673-1.2766 1.522-2.4592 2.496-3.4738 1.778-1.8532 4.179-3.0913 6.689-3.094 1.267-.0014 2.538.3253 3.667.9905 1.019.6009 2.045 1.5441 3.261 1.4712 1.324-.0793 2.386-1.3855 3.351-2.2304 1.089-.9525 2.28-1.6955 3.64-2.0947 2.279-.6686 4.559-.1525 6.395 1.5563 1.954 1.8184 3.558 4.6403 2.767 7.4655-.147.5252-.363.9793-.704 1.3757-.314.3634-.81.7702-.89 1.2992-.086.5624.454 1.2079.69 1.6768.338.6718.635 1.3841.655 2.1571.033 1.2693-.609 2.564-1.342 3.4911-.745.9434-1.729 1.553-2.817 1.912-.726.2396-1.477.4149-2.24.4524-.379.0186-.723-.0448-1.097-.0829-.363-.0371-.55.0811-.826.3119-1.284 1.0723-2.741 1.6052-4.367 1.6694-1.373.0541-2.98-.0822-4.202-.876-1.358-.8817-1.508-2.3094-1.405-3.8672-.288.1897-1.126.3883-.693-.2799.172-.2647.54-.409.781-.5819.28-.2012.559-.4511.759-.7478.809-1.198-.412-3.2833-1.64-3.5006-1.824-.3228-1.913 2.2101-3.09 3.0072-.676.4584-1.493.0462-2.097-.403-.809-.6017-1.415-1.4562-1.955-2.3351-.445-.7238-.867-1.4614-1.318-2.1805-.211-.3358-.913-1.2722-.672-1.7109-1.29-.0959-2.629.5996-3.629 1.4187-.414.3387-.717.6933-.895 1.2231-.038.1136-.111.4461-.249.4764-.258.0564-.2-.2739-.192-.4286z" fill="#2c3134"/><path d="m209.359 136.842c-.782 10.674-51.213 42.102-51.507 42.984-.196.588 15.697 37.165 15.697 37.165l-4.408 1.712s-24.378-38.738-23.126-42.866c1.793-5.91 39.129-38.882 39.129-38.882z" fill="#b28b67"/><path d="m172.39 211.485-7.198 2.618c-15.176-17.109-21.125-31.225-20.041-38.417 1.085-7.193 38.994-38.817 38.994-38.817h25.731c-.878 24.721-47.62 43.052-48.246 44.105-.625 1.054 5.528 11.371 10.76 30.511z" fill="#2c3134"/><path d="m172.955 216.924c.91-.737 2.27-.747 2.971.19.402.537.773 1.101.926 1.521.402 1.102.805 3.351.805 3.351-1.28.466-23.01 8.368-23.01 8.368s-1.976-2.637-.13-3.575c1.846-.939 3.055-1.595 3.055-1.595l8.541-8.248c.405-.391 1.054-.371 1.434.045l.901.986s2.093.184 3.212-.223c.388-.141.853-.462 1.295-.82z" fill="#e4e4e4"/><path d="m203.56 136.842 22.466 53.885 22.079 45.555h-5.209l-56.994-99.44z" fill="#997659"/><path d="m246.071 234.147c1.106-.381 2.388.074 2.726 1.194.193.642.349 1.299.349 1.746 0 1.173-.391 3.424-.391 3.424-1.362 0-24.486 0-24.486 0s-.955-3.152 1.102-3.404c2.056-.251 3.416-.454 3.416-.454l10.85-4.832c.515-.229 1.117.011 1.331.532l.51 1.235s1.904.887 3.094.887c.413 0 .96-.142 1.499-.328z" fill="#e4e4e4"/><path d="m246.111 226.818-11.575 2.169c-8.95-13.146-46.406-67.051-50.513-92.145h25.77c13.714 18.14 27.787 76.613 36.318 89.976z" fill="#4c5459"/><path d="m147.422 123.798 16.453 4.93-4.203 6.995-12.792-7.519c-5.972-.353-8.794-.941-8.465-1.763.278-.692.937-.811 1.545-.92.473-.085.915-.164 1.119-.505.468-.778-1.17-2.803-2.806-4.658-1.637-1.855-.327-1.942.465-1.794 2.72 1.103 5.615 2.848 8.684 5.234zm71.194 1.887 8.615-2.837c7.921 15.033 12.55 23.236 13.888 24.608.98 1.006 6.54 3.224 10.253 4.317 1.491.439 1.333 1.671.965 2.104-2.323 2.734-4.861 2.188-7.623 1.594-.8-.172-1.619-.348-2.456-.45-2.168-.263-2.676.897-3.156 1.993-.425.971-.828 1.891-2.342 1.73.031-.297.074-.63.12-.99.298-2.327.736-5.758-.756-7.537-.766-.913-6.602-9.09-17.508-24.532z" fill="#b28b67"/><path d="m190.357 93.8783-3.804-.1801c-7.152 8.8648-8.149 28.1698-13.251 31.3368-4.824 2.994-12.353 1.597-21.348-.433l-1.917 6.215c8.865 7.5 26.42 12.597 32.681 7.683 10.009-7.855 9.648-31.469 7.639-44.6217z" fill="#ffde8c"/><path d="m212.334 138.664s-22.411 2.758-32.97 4.057c-1.506.186-1.489-2.023-1.405-3.146.962-12.967 9.102-27.819 6.894-45.8372l9.328-2.6601c9.414 11.6713 14.041 26.8993 18.153 47.5863z" fill="#f4f5f5"/><path d="m191.088 150.456 29.678-3.651c-1.336-7.019-3.759-14.317-6.715-21.36 8.205 11.286 14.923 19.311 20.154 24.076l6.745-2.202c-7.831-27.036-23.217-45.808-46.157-56.3163l-.108.0134-3.657.45s-7.462 45.1909.06 58.9899z" fill="#ffe9ad"/><g fill="#c5cfd6"><path d="m113.74 92.2504c0 .0026-.001.0052-.002.0084.001-.0028.001-.0127.002-.0084z"/><path d="m113.739 92.2545c0 .0005-.001.0016 0 .0025-.001-.0024.002-.0105 0-.0025z"/><path d="m113.745 92.2103c-.001.0103-.003.0204-.004.0308 0-.0052.001-.0095.002-.0147-.019.1356-.007.0477.002-.0161z"/><path d="m113.742 92.2415c-.001.0047-.002.01-.003.0147-.007.03.003-.0147.003-.0147z"/><path d="m113.738 92.2585c-.002.0064.007-.0251 0 0z"/></g></g><rect fill="#ffd175" height="32.241" rx="4" transform="matrix(.970112 -.242657 .241188 .970479 83.6055 72.6953)" width="48.8027"/><path clip-rule="evenodd" d="m87.4724 98.8098c0-.2444 1.6822-1.0226 3.4147-.7332 1.4634.2444 3.9024-.9777 6.3414-.7333.7193.8045-1.2637 2.1712-7.9606 5.0707z" fill="#997659" fill-rule="evenodd"/></svg>