<svg width="150" height="26" viewBox="0 0 150 26" fill="none" xmlns="http://www.w3.org/2000/svg">
<path d="M45.5561 20.3H48.6716V14.2036L54.1911 5.24163H50.6332L47.1139 11.2611L43.6329 5.24163H40.0366L45.5561 14.3382V20.3Z" fill="#0D0727"/>
<path d="M63.301 15.9921C63.3202 15.7613 63.3395 15.3959 63.3395 14.9151C63.3395 13.3958 62.8587 12.1458 61.9163 11.2034C60.974 10.2611 59.7432 9.78029 58.2239 9.78029C56.743 9.78029 55.4545 10.2995 54.3775 11.3573C53.3198 12.415 52.7813 13.6651 52.7813 15.1459C52.7813 16.7229 53.3198 18.0114 54.3968 19.0307C55.493 20.0307 56.82 20.5308 58.4162 20.5308C60.5124 20.5308 61.974 19.7615 62.8394 18.2037L60.6663 16.7806C60.2047 17.5306 59.2816 18.0114 58.3777 18.0114C57.0892 18.0114 56.0122 17.2422 55.8391 15.9921H63.301ZM55.9161 14.0112C55.9738 13.6074 56.2045 13.2035 56.6084 12.8189C57.0123 12.415 57.5315 12.2227 58.1469 12.2227C59.5124 12.2227 60.2624 13.1074 60.3393 14.0112H55.9161Z" fill="#0D0727"/>
<path d="M68.4926 4.62622H65.4733V20.3H68.4926V4.62622Z" fill="#0D0727"/>
<path d="M74.2772 4.62622H71.2578V20.3H74.2772V4.62622Z" fill="#0D0727"/>
<path d="M76.4076 15.1844C76.4076 16.7229 76.9461 17.9922 78.0231 19.0115C79.1001 20.0307 80.4271 20.5308 82.004 20.5308C83.5618 20.5308 84.8888 20.0115 85.985 18.9922C87.0812 17.9537 87.6197 16.6652 87.6197 15.1267C87.6197 13.6074 87.0812 12.3573 86.0042 11.3381C84.9273 10.3188 83.6003 9.79952 82.0425 9.79952C80.4848 9.79952 79.1385 10.3188 78.0423 11.3573C76.9461 12.3766 76.4076 13.6651 76.4076 15.1844ZM79.4847 15.1459C79.4847 14.3959 79.7347 13.7612 80.2155 13.2804C80.6963 12.7804 81.2925 12.5304 82.004 12.5304C82.7156 12.5304 83.331 12.7804 83.8118 13.2804C84.2926 13.7612 84.5426 14.3959 84.5426 15.1459C84.5426 16.6844 83.4657 17.7806 82.0233 17.7806C81.3117 17.7806 80.6963 17.5306 80.2155 17.0498C79.7347 16.5498 79.4847 15.9152 79.4847 15.1459Z" fill="#0D0727"/>
<path d="M100.277 16.4537L98.3535 10.0303H95.5841L93.661 16.396H93.6417L91.7955 10.0303H88.7184L91.9109 20.3H94.8149L96.9303 13.742H96.9496L99.0458 20.3H101.988L105.219 10.0303H102.219L100.277 16.4537Z" fill="#0D0727"/>
<path d="M120.332 15.396C120.005 16.2614 119.486 17.1268 118.544 18.1076C117.601 19.0884 116.063 19.7423 114.294 19.7423C112.39 19.7423 110.813 19.05 109.563 17.6845C108.332 16.3191 107.716 14.6652 107.716 12.7228C107.716 10.7996 108.332 9.16493 109.563 7.81872C110.813 6.47251 112.37 5.7994 114.274 5.7994C115.967 5.7994 117.428 6.37635 118.371 7.28024C119.313 8.14566 119.928 9.08801 120.294 10.1073L120.986 9.78035C120.602 8.64568 119.89 7.58794 118.813 6.64559C117.755 5.70325 116.14 5.0686 114.313 5.0686C112.178 5.0686 110.409 5.81864 109.005 7.3187C107.601 8.79953 106.909 10.6265 106.909 12.7805C106.909 14.9537 107.601 16.7614 108.986 18.2423C110.37 19.7231 112.14 20.4539 114.274 20.4539C116.14 20.4539 117.813 19.8 118.871 18.8192C119.948 17.8384 120.64 16.7999 121.025 15.7229L120.332 15.396Z" fill="#0D0727"/>
<path d="M131.081 20.3V13.8382C131.081 11.2996 129.542 9.85727 127.157 9.85727C125.177 9.85727 123.773 10.7996 123.08 12.2805L123.753 12.6651C124.465 11.2612 125.6 10.5688 127.177 10.5688C129.196 10.5688 130.311 11.8189 130.311 13.8959V14.6075H126.984C125.907 14.6075 124.965 14.8575 124.157 15.3575C123.369 15.8383 122.965 16.5691 122.965 17.5499C122.965 18.4923 123.292 19.2038 123.946 19.7231C124.6 20.2231 125.427 20.4731 126.407 20.4731C128.042 20.4731 129.542 19.5885 130.311 18.0307V20.3H131.081ZM130.331 16.0883C130.331 17.1845 129.946 18.0884 129.196 18.7615C128.446 19.4346 127.523 19.7616 126.427 19.7616C124.869 19.7616 123.753 18.9731 123.753 17.5307C123.753 16.7807 124.08 16.2229 124.734 15.8575C125.407 15.4921 126.157 15.2998 127.023 15.2998H130.331V16.0883Z" fill="#0D0727"/>
<path d="M139.166 9.89574C138.32 9.89574 137.532 10.165 136.82 10.7035C136.108 11.2227 135.608 11.8958 135.339 12.7036V10.0304H134.589V20.3H135.339V15.1267C135.339 13.8767 135.685 12.8382 136.358 11.9728C137.032 11.1073 137.993 10.665 139.205 10.665H139.359V9.91497C139.32 9.89574 139.262 9.89574 139.166 9.89574Z" fill="#0D0727"/>
<path d="M150 20.3V4.64551H149.269V12.7805C148.519 11.0304 146.923 9.85727 144.923 9.85727C143.481 9.85727 142.307 10.3765 141.365 11.415C140.423 12.4343 139.961 13.6844 139.961 15.146C139.961 16.6076 140.423 17.8576 141.327 18.8961C142.25 19.9346 143.442 20.4539 144.923 20.4539C145.904 20.4539 146.788 20.1846 147.558 19.6269C148.346 19.0692 148.904 18.3576 149.269 17.4922V20.3H150ZM144.961 19.7231C143.711 19.7231 142.692 19.2808 141.904 18.4153C141.115 17.5307 140.73 16.4345 140.73 15.1267V15.1075C140.73 13.819 141.115 12.742 141.904 11.8766C142.692 11.0112 143.711 10.5881 144.961 10.5881C146.231 10.5881 147.269 11.0496 148.077 11.9535C148.885 12.8574 149.289 13.9151 149.289 15.1267V15.1844C149.289 16.4153 148.885 17.473 148.058 18.3769C147.25 19.2808 146.211 19.7231 144.961 19.7231Z" fill="#0D0727"/>
<path d="M2.72609 6.07367C2.82856 5.49257 3.3827 5.10455 3.96381 5.20701L23.7617 8.69791C24.3428 8.80037 24.7308 9.35452 24.6283 9.93563L22.0875 24.3452C21.9851 24.9263 21.4309 25.3143 20.8498 25.2118L1.05196 21.7209C0.470853 21.6185 0.082837 21.0643 0.185302 20.4832L2.72609 6.07367Z" fill="#FEE5B0"/>
<path d="M8.57501 3.14095C8.77682 2.58646 9.38993 2.30057 9.94442 2.50238L28.8353 9.37811C29.3898 9.57992 29.6757 10.193 29.4739 10.7475L24.4695 24.4969C24.2677 25.0514 23.6546 25.3373 23.1001 25.1355L4.2092 18.2598C3.65471 18.058 3.36881 17.4449 3.57063 16.8904L8.57501 3.14095Z" fill="#FDCA5F"/>
<path d="M15.3291 0.925281C15.6241 0.414262 16.2775 0.239175 16.7886 0.534211L34.1985 10.5858C34.7095 10.8809 34.8846 11.5343 34.5896 12.0453L27.2737 24.7169C26.9786 25.2279 26.3252 25.403 25.8142 25.1079L8.40423 15.0563C7.89321 14.7613 7.71812 14.1078 8.01316 13.5968L15.3291 0.925281Z" fill="#FCB41C"/>
</svg>
